<svg id="レイヤー_1" data-name="レイヤー 1" xmlns="http://www.w3.org/2000/svg" viewBox="0 0 105.3 29.29"><defs><style>.cls-1{fill:#231815;}</style></defs><path class="cls-1" d="M.14,29.64s0-8.31,0-10.92q0-3.36-.09-8C0,7.65-.08,4.06-.15.36c1,0,2.08,0,3.33,0C4.25.36,5.52.44,7,.42s3.1,0,4.93,0q0,.69,0,1.65c0,.56,0,1.24,0,2V7c-.34,0-.77,0-1.28,0H8.88L6.47,7V8.34c0,.44,0,1,0,1.61s0,.79,0,1.59H8.06c.84,0,1.11,0,2.53-.07v2.35c0,.56-.1,2.22-.1,3s0-.08,0,.85c-.32,0-.71,0-1.17,0H8.47c-.61,0-1,0-1.89,0,0,1.1,0,3,0,4.22s0,5,.09,6.36Z" transform="translate(0.15 -0.36)"/><path class="cls-1" d="M19.28,22.05a.52.52,0,0,0,.42-.24,2.27,2.27,0,0,0,.31-1,22.27,22.27,0,0,0,.17-2.29c0-1,.05-2.38.05-4.1s0-3-.05-3.94A22.26,22.26,0,0,0,20,8.21a2.46,2.46,0,0,0-.32-1,.59.59,0,0,0-.47-.25.62.62,0,0,0-.54.29,2.61,2.61,0,0,0-.31,1.12c-.06.57-.11,1.35-.13,2.36s0,2.33,0,3.94,0,2.95.06,3.92.11,1.73.19,2.24a2.13,2.13,0,0,0,.32,1,.62.62,0,0,0,.5.24m-.06,4.61a7.38,7.38,0,0,1-3.54-.77,6.09,6.09,0,0,1-2.36-2.29A11.48,11.48,0,0,1,12,19.86a28,28,0,0,1-.42-5.15,34.61,34.61,0,0,1,.34-5.1,12.59,12.59,0,0,1,1.19-4A6.59,6.59,0,0,1,15.43,3a6.88,6.88,0,0,1,3.75-.93A7.61,7.61,0,0,1,23,3a6.08,6.08,0,0,1,2.36,2.48,11.8,11.8,0,0,1,1.18,3.94,39.65,39.65,0,0,1,.32,5.29,30,30,0,0,1-.5,5.59A10.76,10.76,0,0,1,25,24,5.46,5.46,0,0,1,22.6,26a8.16,8.16,0,0,1-3.38.64" transform="translate(0.15 -0.36)"/><path class="cls-1" d="M33.92,14.34a2,2,0,0,0,1.59-.76,3.92,3.92,0,0,0,.58-2.43,5.41,5.41,0,0,0-.54-2.64,1.67,1.67,0,0,0-1.74-.87c0,.84,0,1.66,0,2.45s0,1.5.05,2.13,0,1.45,0,2.12m2.76,12.73-.59-2.38c-.19-.77-.42-1.4-.7-2.48s-.61-2.31-1-3.67a.18.18,0,0,1-.14,0h-.35l.14,7.53H30.17c-.8,0-1.66,0-2.6,0q0-2.8.07-6.48c0-2.11,0-4.63.06-7.57s.12-6.06.12-9.78c1.05-.18,4.83-.08,5.65-.08,3.25,0,4.75.19,6.26,1.68a8.72,8.72,0,0,1,2.88,6.42,8.42,8.42,0,0,1-.69,3.86,6.83,6.83,0,0,1-2.15,2.52q.21.71,1,3.24c.56,1.7,1.38,3.73,2.45,6.69l-1.71.11-2.07.16c-.82,0-1.75.11-2.81.15" transform="translate(0.15 -0.36)"/><path class="cls-1" d="M56.47,25.75q0-2.67,0-6.22,0-3.06,0-7.36c0-2.86.05-5.58,0-9.23.52,0,4.74-.87,5.61-.92.31.93.77,2.11,1.2,3.34.35,1,.79,2.33,1.31,3.84s1.12,3.23,1.8,5.15c-.07-1.47-.17-3.32-.32-5.56s-.34-3.92-.6-7.07c.45,0,4.87,0,5.77,0,0,2-.08,20.41,0,24.44-.37,0-3.93.43-4.92.51-.36-1-.76-2.16-1.21-3.46-.4-1.1-.87-2-1.41-3.5s-1.15-3.15-1.81-5c0,1.25.11,2.77.18,4.57s.19,4,.35,6.55c-.47,0-1,0-1.63,0l-1.89-.05-2.46,0" transform="translate(0.15 -0.36)"/><path class="cls-1" d="M72.74,27.06V19.68c0-2.29,0-5,0-8S72.64,6.55,72.59,3h3.75c.81,0,1.77,0,2.87,0,0,2.41,0,3.7,0,6.48q0,3.54.06,8.11c0,3.05,0,6.22.09,9.54H72.74Z" transform="translate(0.15 -0.36)"/><path class="cls-1" d="M79.81,10.16c0-.34,0-.81,0-1.39s0-1.14,0-1.94,0-1.8,0-3c0,0,11.23-.4,13.46-.45,0,.52,0,1.39-.07,2s0,1.24,0,2,0,1.1,0,2.12h-1c-.32,0-.7,0-1.14,0l-1.52,0V13c0,1.27,0,3.29,0,4.86s0,1.6,0,3.5.05,4,.07,6.36c-.43,0-.94,0-1.53,0s-1.17,0-1.93,0l-2.69.05c0-1.51,0-3.25,0-5.22,0-1.69,0-2,0-4.36s0-5-.05-8Z" transform="translate(0.15 -0.36)"/><path class="cls-1" d="M42.71,8.4c0-.34,0-.81,0-1.39s0-1.13,0-1.94,0-1.8-.06-3c0,0,10.84.75,13.33,1.11,0,.51,0,1.7-.06,2.5s0,2.8,0,3.83h-1l-.72,0-1.62,0v3.44c0,1.26,0,1.57,0,3.14s0,1.8.06,3.7.05,4,.07,6.36c-.46,0-1,0-1.64,0l-2.07,0-2.87.05c0-1.51,0-3.25,0-5.22,0-1.68,0-2.19,0-4.56s0-5-.05-8Z" transform="translate(0.15 -0.36)"/><path class="cls-1" d="M94,28.07c0-2.12.26-5,.24-7.63,0-2.27,0-4.93-.09-8s-.07-7-.11-10.67c.63,0,9-1,11-1V6c0,.8,0,.86.07,1.81-.63,0-1.25,0-1.86,0s-1.06,0-1.63,0-1.09,0-1.54,0c0,.49,0,.93,0,1.33s0,1.57,0,1.89v1l1.18,0c.65,0,1.65,0,3-.05v3.71c0,.74,0,.76,0,1.66h-1.18l-1.32,0-1.59,0v.88c0,.58,0,2.17.1,3.14l1.29.08,1.48.09c.59,0,1.24.07,2,.09,0,.41,0,.93,0,1.53s0,1.15,0,1.91v3.67c-1,0-9.55-.73-11-.76" transform="translate(0.15 -0.36)"/></svg>